<?xml version="1.0" standalone="no"?>
<!DOCTYPE svg PUBLIC "-//W3C//DTD SVG 20010904//EN"
 "http://www.w3.org/TR/2001/REC-SVG-20010904/DTD/svg10.dtd">
<svg version="1.0" xmlns="http://www.w3.org/2000/svg"
 width="763.000000pt" height="763.000000pt" viewBox="0 0 763.000000 763.000000"
 preserveAspectRatio="xMidYMid meet">
<metadata>
Created by potrace 1.14, written by Peter Selinger 2001-2017
</metadata>
<g transform="translate(0.000000,763.000000) scale(0.100000,-0.100000)"
fill="#000000" stroke="none">
<path d="M3217 6244 c-1 -1 -60 -4 -132 -8 -130 -6 -147 -7 -240 -20 -40 -6
-191 -34 -275 -51 -71 -15 -210 -55 -335 -97 -879 -295 -1655 -918 -2001
-1605 -134 -267 -198 -519 -198 -783 0 -81 9 -200 19 -244 3 -12 7 -32 9 -46
25 -157 136 -406 261 -586 162 -231 390 -369 735 -443 52 -11 120 -22 150 -25
30 -3 85 -8 122 -12 127 -12 493 -5 573 11 11 2 43 7 70 10 76 9 115 15 170
25 28 5 66 12 85 15 183 30 543 134 753 217 l78 31 92 -89 c50 -49 94 -92 97
-95 3 -3 48 -41 101 -85 362 -302 865 -579 1354 -747 147 -50 390 -118 475
-132 19 -3 51 -10 70 -15 19 -4 76 -14 125 -20 50 -7 99 -14 109 -16 80 -15
353 -22 481 -13 492 36 855 190 1156 489 243 242 379 530 414 875 13 126 5
344 -15 440 -5 22 -12 56 -15 75 -11 69 -58 227 -92 315 -51 130 -152 329
-212 419 -183 271 -489 538 -866 756 -301 174 -810 383 -1081 445 -11 2 -53
13 -94 23 -61 16 -217 49 -264 56 -23 3 -35 19 -66 84 -100 214 -297 427 -520
565 -180 111 -456 212 -670 247 -41 6 -86 13 -100 16 -50 8 -317 23 -323 18z
m-74 -101 c-7 -2 -19 -2 -25 0 -7 3 -2 5 12 5 14 0 19 -2 13 -5z m-216 -19
c-3 -3 -12 -4 -19 -1 -8 3 -5 6 6 6 11 1 17 -2 13 -5z m1148 -164 c10 -11 16
-20 13 -20 -3 0 -13 9 -23 20 -10 11 -16 20 -13 20 3 0 13 -9 23 -20z m-100
-40 c10 -11 16 -20 13 -20 -3 0 -13 9 -23 20 -10 11 -16 20 -13 20 3 0 13 -9
23 -20z m456 -177 c13 -16 12 -17 -3 -4 -10 7 -18 15 -18 17 0 8 8 3 21 -13z
m144 -143 c10 -11 16 -20 13 -20 -3 0 -13 9 -23 20 -10 11 -16 20 -13 20 3 0
13 -9 23 -20z m-448 -12 c-3 -8 -6 -5 -6 6 -1 11 2 17 5 13 3 -3 4 -12 1 -19z
m-770 -104 c-3 -3 -12 -4 -19 -1 -8 3 -5 6 6 6 11 1 17 -2 13 -5z m406 -1 c-7
-2 -19 -2 -25 0 -7 3 -2 5 12 5 14 0 19 -2 13 -5z m142 -117 c133 -21 208 -37
202 -42 -2 -3 -17 -7 -33 -10 -269 -48 -510 -133 -719 -253 -77 -44 -218 -145
-270 -192 -22 -20 -54 -50 -71 -65 -156 -145 -307 -382 -372 -584 -40 -123
-66 -266 -71 -392 -1 -31 -24 -45 -201 -121 -202 -86 -520 -187 -640 -203 -25
-3 -48 -8 -51 -10 -3 -1 -28 -6 -55 -10 -27 -3 -57 -8 -66 -9 -96 -19 -372
-25 -505 -13 -71 7 -161 23 -310 54 -29 6 -73 22 -73 27 0 16 45 127 78 194
60 123 196 324 278 413 13 14 45 49 71 79 88 99 239 245 333 321 30 25 57 47
60 51 21 24 324 239 385 273 17 9 46 26 65 38 296 180 702 346 1005 409 33 7
67 14 75 16 22 5 269 41 310 46 90 9 481 -2 575 -17z m-2855 -70 c0 -2 -8 -10
-17 -17 -16 -13 -17 -12 -4 4 13 16 21 21 21 13z m-60 -50 c0 -2 -8 -10 -17
-17 -16 -13 -17 -12 -4 4 13 16 21 21 21 13z m3090 -40 c0 -2 -7 -20 -15 -40
-94 -225 -250 -442 -471 -657 -98 -94 -100 -96 -183 -118 -45 -12 -85 -20 -88
-18 -6 7 -6 169 1 203 3 16 8 44 11 62 9 56 53 160 91 217 36 56 173 190 182
180 3 -3 15 4 26 14 44 42 257 129 356 146 19 3 36 8 39 11 5 5 51 6 51 0z
m-3190 -49 c0 -2 -10 -12 -22 -23 l-23 -19 19 23 c18 21 26 27 26 19z m-140
-140 c0 -2 -15 -16 -32 -33 l-33 -29 29 33 c28 30 36 37 36 29z m4097 -39 c-3
-7 -5 -2 -5 12 0 14 2 19 5 13 2 -7 2 -19 0 -25z m-4197 -72 c0 -2 -8 -10 -17
-17 -16 -13 -17 -12 -4 4 13 16 21 21 21 13z m800 -210 c0 -2 -8 -10 -17 -17
-16 -13 -17 -12 -4 4 13 16 21 21 21 13z m3487 -28 c-3 -8 -6 -5 -6 6 -1 11 2
17 5 13 3 -3 4 -12 1 -19z m-1077 -22 c0 -2 -8 -10 -17 -17 -16 -13 -17 -12
-4 4 13 16 21 21 21 13z m-860 -10 c0 -2 -8 -10 -17 -17 -16 -13 -17 -12 -4 4
13 16 21 21 21 13z m800 -59 c0 -2 -12 -14 -27 -28 l-28 -24 24 28 c23 25 31
32 31 24z m-593 -49 c-3 -8 -6 -5 -6 6 -1 11 2 17 5 13 3 -3 4 -12 1 -19z
m-1967 -11 c0 -2 -12 -14 -27 -28 l-28 -24 24 28 c23 25 31 32 31 24z m5491
-144 c13 -16 12 -17 -3 -4 -10 7 -18 15 -18 17 0 8 8 3 21 -13z m-5631 4 c0
-2 -15 -16 -32 -33 l-33 -29 29 33 c28 30 36 37 36 29z m2107 -19 c-3 -8 -6
-5 -6 6 -1 11 2 17 5 13 3 -3 4 -12 1 -19z m373 -1 c0 -2 -10 -12 -22 -23
l-23 -19 19 23 c18 21 26 27 26 19z m3220 -42 c13 -14 21 -25 18 -25 -2 0 -15
11 -28 25 -13 14 -21 25 -18 25 2 0 15 -11 28 -25z m-1847 -41 c664 -153 1286
-568 1744 -1165 71 -92 243 -350 243 -364 0 -8 -82 -42 -169 -70 -87 -28 -190
-51 -276 -60 -33 -4 -69 -9 -80 -11 -27 -6 -343 -5 -375 0 -14 3 -54 7 -90 10
-36 4 -76 8 -90 11 -14 2 -56 9 -95 15 -254 39 -648 159 -960 293 -192 82
-600 303 -692 375 l-22 17 92 95 c51 52 121 129 157 170 36 41 73 83 83 95 33
36 153 198 205 276 60 89 182 308 182 327 0 17 16 15 143 -14z m-4676 -6 c-3
-8 -6 -5 -6 6 -1 11 2 17 5 13 3 -3 4 -12 1 -19z m3223 19 c0 -2 -10 -12 -22
-23 l-23 -19 19 23 c18 21 26 27 26 19z m-2510 -31 c0 -2 -8 -10 -17 -17 -16
-13 -17 -12 -4 4 13 16 21 21 21 13z m-50 -60 c0 -2 -8 -10 -17 -17 -16 -13
-17 -12 -4 4 13 16 21 21 21 13z m6030 -51 c13 -14 21 -25 18 -25 -2 0 -15 11
-28 25 -13 14 -21 25 -18 25 2 0 15 -11 28 -25z m-4283 -187 c-3 -8 -6 -5 -6
6 -1 11 2 17 5 13 3 -3 4 -12 1 -19z m-2523 -93 c3 -8 1 -15 -4 -15 -6 0 -10
7 -10 15 0 8 2 15 4 15 2 0 6 -7 10 -15z m2513 -37 c-2 -13 -4 -5 -4 17 -1 22
1 32 4 23 2 -10 2 -28 0 -40z m1693 -52 c0 -2 -8 -10 -17 -17 -16 -13 -17 -12
-4 4 13 16 21 21 21 13z m-1693 -48 c-3 -7 -5 -2 -5 12 0 14 2 19 5 13 2 -7 2
-19 0 -25z m-2530 -80 c-2 -18 -4 -6 -4 27 0 33 2 48 4 33 2 -15 2 -42 0 -60z
m223 57 c13 -14 21 -25 18 -25 -2 0 -15 11 -28 25 -13 14 -21 25 -18 25 2 0
15 -11 28 -25z m3960 21 c0 -2 -8 -10 -17 -17 -16 -13 -17 -12 -4 4 13 16 21
21 21 13z m1955 -26 c10 -11 16 -20 13 -20 -3 0 -13 9 -23 20 -10 11 -16 20
-13 20 3 0 13 -9 23 -20z m-2754 -7 c13 -16 12 -17 -3 -4 -17 13 -22 21 -14
21 2 0 10 -8 17 -17z m194 -63 c38 -38 67 -70 64 -70 -2 0 -36 32 -74 70 -38
39 -67 70 -64 70 2 0 36 -31 74 -70z m-3419 -2 l29 -33 -32 29 c-31 28 -38 36
-30 36 2 0 16 -15 33 -32z m3964 29 c0 -2 -12 -14 -27 -28 l-28 -24 24 28 c23
25 31 32 31 24z m2106 -39 l29 -33 -32 29 c-18 17 -33 31 -33 33 0 8 8 1 36
-29z m-3689 -10 c-3 -8 -6 -5 -6 6 -1 11 2 17 5 13 3 -3 4 -12 1 -19z m963
-43 c35 -36 62 -65 59 -65 -2 0 -34 29 -69 65 -35 36 -62 65 -59 65 2 0 34
-29 69 -65z m-3493 -67 c-3 -8 -6 -5 -6 6 -1 11 2 17 5 13 3 -3 4 -12 1 -19z
m3708 2 c10 -11 16 -20 13 -20 -3 0 -13 9 -23 20 -10 11 -16 20 -13 20 3 0 13
-9 23 -20z m275 17 c0 -1 -30 -32 -67 -67 l-68 -65 65 68 c60 62 70 72 70 64z
m-349 -84 c13 -16 12 -17 -3 -4 -17 13 -22 21 -14 21 2 0 10 -8 17 -17z m3516
-5 c-3 -8 -6 -5 -6 6 -1 11 2 17 5 13 3 -3 4 -12 1 -19z m-726 -15 c13 -16 12
-17 -3 -4 -10 7 -18 15 -18 17 0 8 8 3 21 -13z m-4974 -29 c-3 -3 -12 -4 -19
-1 -8 3 -5 6 6 6 11 1 17 -2 13 -5z m-620 -20 c-3 -3 -12 -4 -19 -1 -8 3 -5 6
6 6 11 1 17 -2 13 -5z m141 -11 c-10 -2 -26 -2 -35 0 -10 3 -2 5 17 5 19 0 27
-2 18 -5z m180 0 c-10 -2 -26 -2 -35 0 -10 3 -2 5 17 5 19 0 27 -2 18 -5z
m5343 -20 c13 -16 12 -17 -3 -4 -10 7 -18 15 -18 17 0 8 8 3 21 -13z m439
-497 c0 -2 -8 -10 -17 -17 -16 -13 -17 -12 -4 4 13 16 21 21 21 13z m347 -68
c-3 -8 -6 -5 -6 6 -1 11 2 17 5 13 3 -3 4 -12 1 -19z m-4336 -15 c13 -16 12
-17 -3 -4 -10 7 -18 15 -18 17 0 8 8 3 21 -13z m-2550 -50 c13 -16 12 -17 -3
-4 -10 7 -18 15 -18 17 0 8 8 3 21 -13z m2684 -93 c44 -44 77 -80 75 -80 -3 0
-41 36 -85 80 -44 44 -77 80 -75 80 3 0 41 -36 85 -80z m4182 18 c-3 -8 -6 -5
-6 6 -1 11 2 17 5 13 3 -3 4 -12 1 -19z m-820 -104 c-3 -3 -12 -4 -19 -1 -8 3
-5 6 6 6 11 1 17 -2 13 -5z m-654 -11 c-7 -2 -19 -2 -25 0 -7 3 -2 5 12 5 14
0 19 -2 13 -5z m94 -9 c-3 -3 -12 -4 -19 -1 -8 3 -5 6 6 6 11 1 17 -2 13 -5z
m-2646 -41 c13 -16 12 -17 -3 -4 -10 7 -18 15 -18 17 0 8 8 3 21 -13z m-1264
1 c-3 -3 -12 -4 -19 -1 -8 3 -5 6 6 6 11 1 17 -2 13 -5z m-60 -10 c-3 -3 -12
-4 -19 -1 -8 3 -5 6 6 6 11 1 17 -2 13 -5z m-744 -31 c-7 -2 -19 -2 -25 0 -7
3 -2 5 12 5 14 0 19 -2 13 -5z m164 -9 c-3 -3 -12 -4 -19 -1 -8 3 -5 6 6 6 11
1 17 -2 13 -5z m71 -1 c-10 -2 -28 -2 -40 0 -13 2 -5 4 17 4 22 1 32 -1 23 -4z
m65 0 c-7 -2 -21 -2 -30 0 -10 3 -4 5 12 5 17 0 24 -2 18 -5z m5447 -438 c-24
-25 -46 -45 -49 -45 -3 0 15 20 39 45 24 25 46 45 49 45 3 0 -15 -20 -39 -45z
m-1653 -431 c-3 -3 -12 -4 -19 -1 -8 3 -5 6 6 6 11 1 17 -2 13 -5z m80 -10
c-3 -3 -12 -4 -19 -1 -8 3 -5 6 6 6 11 1 17 -2 13 -5z m100 -10 c-3 -3 -12 -4
-19 -1 -8 3 -5 6 6 6 11 1 17 -2 13 -5z m450 0 c-3 -3 -12 -4 -19 -1 -8 3 -5
6 6 6 11 1 17 -2 13 -5z m-280 -10 c-3 -3 -12 -4 -19 -1 -8 3 -5 6 6 6 11 1
17 -2 13 -5z m91 -1 c-10 -2 -26 -2 -35 0 -10 3 -2 5 17 5 19 0 27 -2 18 -5z"/>
</g>
</svg>
